<mxfile host="65bd71144e">
    <diagram id="BzEOUc26bLeQNYY371CN" name="Page-1">
        <mxGraphModel dx="1046" dy="1106" grid="1" gridSize="10" guides="1" tooltips="1" connect="1" arrows="1" fold="1" page="1" pageScale="1" pageWidth="850" pageHeight="1100" math="0" shadow="0">
            <root>
                <mxCell id="0"/>
                <mxCell id="1" parent="0"/>
                <mxCell id="2" value="&lt;h1&gt;Main&lt;/h1&gt;&lt;h4&gt;&lt;div style=&quot;text-align: left;&quot;&gt;&lt;span style=&quot;background-color: initial; font-weight: normal;&quot;&gt;+ Aminoacids: List &amp;lt;AminoAcid&amp;gt;&lt;/span&gt;&lt;/div&gt;&lt;div style=&quot;text-align: left;&quot;&gt;&lt;span style=&quot;background-color: initial; font-weight: normal;&quot;&gt;+ Genes: List &amp;lt;Gene&amp;gt;&lt;/span&gt;&lt;/div&gt;&lt;div style=&quot;text-align: left;&quot;&gt;&lt;span style=&quot;font-weight: 400;&quot;&gt;+ ReadingFrame: Integer&lt;/span&gt;&lt;/div&gt;&lt;div style=&quot;text-align: left;&quot;&gt;&lt;hr&gt;&lt;/div&gt;&lt;/h4&gt;&lt;div style=&quot;text-align: left;&quot;&gt;+ main(String[] args): void&lt;/div&gt;&lt;div style=&quot;text-align: left;&quot;&gt;+ generateGeneAnalysisReport(): void&lt;/div&gt;&lt;div style=&quot;text-align: left;&quot;&gt;+ performCodonBiasAnalysis(): void&lt;/div&gt;&lt;div style=&quot;text-align: left;&quot;&gt;+ analyzeSingleAminoAcid(): void&lt;/div&gt;&lt;div style=&quot;text-align: left;&quot;&gt;+ writeReportToFile(String content, String fileName): void&lt;/div&gt;&lt;div style=&quot;text-align: left;&quot;&gt;+ loadAminoAcidTable(): void&lt;/div&gt;&lt;div style=&quot;text-align: left;&quot;&gt;+ loadCovidSequence(String fileName): void&lt;/div&gt;&lt;div style=&quot;text-align: left;&quot;&gt;&lt;br&gt;&lt;/div&gt;" style="whiteSpace=wrap;html=1;" vertex="1" parent="1">
                    <mxGeometry x="255" y="30" width="340" height="270" as="geometry"/>
                </mxCell>
                <mxCell id="3" value="&lt;h1&gt;Gene&lt;/h1&gt;&lt;h3 style=&quot;&quot;&gt;&lt;/h3&gt;&lt;h4 style=&quot;text-align: left;&quot;&gt;&lt;span style=&quot;font-weight: normal;&quot;&gt;&lt;span style=&quot;background-color: initial; font-size: 12px;&quot;&gt;+ aminoAcidString: String&lt;br&gt;&lt;/span&gt;&lt;span style=&quot;background-color: initial; font-size: 12px;&quot;&gt;+ startPosition: Integer&lt;br&gt;&lt;/span&gt;&lt;span style=&quot;background-color: initial; font-size: 12px;&quot;&gt;+ endPosition: Integer&lt;br&gt;&lt;/span&gt;&lt;span style=&quot;background-color: initial; font-size: 12px;&quot;&gt;+ geneLength: Integer&lt;/span&gt;&lt;/span&gt;&lt;hr&gt;&lt;span style=&quot;font-weight: normal;&quot;&gt;+ getAminoAcidString(): String&lt;br&gt;+ getStartPosition(): Integer&lt;br&gt;+ getEndPosition(): Integer&lt;br&gt;+ getGeneLength(): Integer&lt;/span&gt;&lt;/h4&gt;&lt;div&gt;&lt;br&gt;&lt;/div&gt;" style="whiteSpace=wrap;html=1;" vertex="1" parent="1">
                    <mxGeometry x="50" y="508.5" width="300" height="222" as="geometry"/>
                </mxCell>
                <mxCell id="4" value="&lt;h1&gt;AminoAcid&lt;/h1&gt;&lt;h4 style=&quot;&quot;&gt;&lt;/h4&gt;&lt;h4 style=&quot;text-align: left;&quot;&gt;&lt;span style=&quot;background-color: initial; font-weight: normal;&quot;&gt;+ fullName: String&lt;br&gt;&lt;/span&gt;&lt;span style=&quot;background-color: initial; font-weight: normal;&quot;&gt;+ singleLetterAbbreviation(): String&lt;br&gt;&lt;/span&gt;&lt;span style=&quot;background-color: initial; font-weight: normal;&quot;&gt;+ codons: List&amp;lt;String&amp;gt;&lt;/span&gt;&lt;hr style=&quot;text-align: left;&quot;&gt;&lt;/h4&gt;&lt;h4 style=&quot;text-align: left;&quot;&gt;&lt;span style=&quot;font-weight: normal;&quot;&gt;+ getFullName(): String&lt;br&gt;+ getSingleLetterAbbreviation(): String&lt;br&gt;+ getCodons(): List&amp;lt;String&amp;gt;&lt;/span&gt;&lt;br&gt;&lt;/h4&gt;" style="whiteSpace=wrap;html=1;" vertex="1" parent="1">
                    <mxGeometry x="510" y="508.5" width="300" height="225" as="geometry"/>
                </mxCell>
                <mxCell id="16" value="1" style="endArrow=open;html=1;endSize=12;startArrow=diamondThin;startSize=14;startFill=0;edgeStyle=orthogonalEdgeStyle;align=left;verticalAlign=bottom;entryX=0.5;entryY=1;entryDx=0;entryDy=0;" edge="1" parent="1" target="2">
                    <mxGeometry x="-0.9101" relative="1" as="geometry">
                        <mxPoint x="190" y="510" as="sourcePoint"/>
                        <mxPoint x="450" y="400" as="targetPoint"/>
                        <Array as="points">
                            <mxPoint x="190" y="400"/>
                            <mxPoint x="425" y="400"/>
                        </Array>
                        <mxPoint as="offset"/>
                    </mxGeometry>
                </mxCell>
                <mxCell id="17" value="1" style="endArrow=open;html=1;endSize=12;startArrow=diamondThin;startSize=14;startFill=0;edgeStyle=orthogonalEdgeStyle;align=left;verticalAlign=bottom;exitX=0.518;exitY=-0.007;exitDx=0;exitDy=0;exitPerimeter=0;entryX=0.5;entryY=1;entryDx=0;entryDy=0;" edge="1" parent="1" source="4" target="2">
                    <mxGeometry x="-0.9243" relative="1" as="geometry">
                        <mxPoint x="500" y="390" as="sourcePoint"/>
                        <mxPoint x="660" y="390" as="targetPoint"/>
                        <Array as="points">
                            <mxPoint x="665" y="400"/>
                            <mxPoint x="425" y="400"/>
                        </Array>
                        <mxPoint as="offset"/>
                    </mxGeometry>
                </mxCell>
            </root>
        </mxGraphModel>
    </diagram>
</mxfile>